<svg width="32" height="21" viewBox="0 0 32 21" fill="none" xmlns="http://www.w3.org/2000/svg">
<path d="M21.0485 15.9973C22.6097 16.8736 23.486 18.3202 23.3337 19.8059C23.2569 20.72 23.2959 20.72 22.1149 20.8723C21.391 20.9491 16.7829 20.9869 12.098 20.9869C6.76599 20.9869 1.20484 20.9491 0.786804 20.8345C-0.774414 20.4153 0.139648 17.5207 2.19568 16.1497C3.83368 15.121 7.14746 13.522 8.06152 13.3307C9.31805 13.0638 9.4704 12.2643 8.06152 9.86456C7.75684 9.29297 7.41437 7.65497 7.37537 5.90363C7.33759 3.08466 7.8324 1.18097 10.3077 0.229125C10.7647 0.0767809 11.2985 0 11.7933 0C13.4313 0 14.9548 0.914063 15.6019 2.24738C16.4782 4.03772 16.059 8.72259 15.1449 10.4362C14.0407 12.3788 14.1541 12.9882 15.374 13.2929C16.1357 13.483 18.65 14.664 21.0485 15.9973ZM29.3896 13.5976C30.6084 14.2447 31.2946 15.4257 31.18 16.5689C31.1422 17.2551 31.1422 17.2928 30.2281 17.4074C29.7711 17.4842 27.3714 17.522 24.5536 17.522C24.0588 16.341 23.1058 15.2746 21.8115 14.5897C20.3258 13.7512 18.5745 12.8761 17.2411 12.3045C18.1174 11.8852 18.8791 11.5428 19.2216 11.466C20.1735 11.2369 20.288 10.7043 19.2216 8.79937C18.9547 8.34234 18.65 7.04681 18.6122 5.67572C18.5745 3.46613 19.0693 1.94269 20.9742 1.21997C21.3556 1.10541 21.7737 1.02984 22.1551 1.02984C23.4117 1.02984 24.5926 1.716 25.0875 2.78241C25.7346 4.19128 25.4299 7.84753 24.745 9.21862C23.9065 10.7421 23.9833 11.1991 24.9351 11.4282C25.5445 11.5806 27.4872 12.5324 29.3909 13.5988L29.3896 13.5976Z" fill="white"/>
</svg>
